<?xml version="1.0" encoding="UTF-8" standalone="no"?>
<!-- Created with Inkscape (http://www.inkscape.org/) -->

<svg
   width="210mm"
   height="297mm"
   viewBox="0 0 210 297"
   version="1.1"
   id="svg1"
   xml:space="preserve"
   xmlns:inkscape="http://www.inkscape.org/namespaces/inkscape"
   xmlns:sodipodi="http://sodipodi.sourceforge.net/DTD/sodipodi-0.dtd"
   xmlns="http://www.w3.org/2000/svg"
   xmlns:svg="http://www.w3.org/2000/svg"><sodipodi:namedview
     id="namedview1"
     pagecolor="#ffffff"
     bordercolor="#000000"
     borderopacity="0.25"
     inkscape:showpageshadow="2"
     inkscape:pageopacity="0.0"
     inkscape:pagecheckerboard="0"
     inkscape:deskcolor="#d1d1d1"
     inkscape:document-units="mm" /><defs
     id="defs1" /><g
     inkscape:label="Layer 1"
     inkscape:groupmode="layer"
     id="layer1"><path
       style="fill:#000000"
       d="m 102.35201,202.98111 c -3.825637,-0.61356 -7.517627,-1.78828 -11.007677,-3.50243 -2.78799,-1.36934 -3.80375,-2.08858 -6.56961,-4.65185 -3.21855,-2.98279 -4.89205,-6.00605 -6.4808,-11.70787 -0.72172,-2.59019 -0.42129,-7.27199 0.67424,-10.5071 0.62808,-1.85469 2.24111,-4.95856 3.31113,-6.37142 1.03517,-1.36685 2.58872,-2.96078 4.37024,-4.48385 l 0.77221,-0.66017 -0.71375,-1.52391 c -1.24674,-2.66188 -1.83189,-4.95305 -1.83189,-7.17286 0,-0.92157 -0.0689,-1.20532 -0.33879,-1.3948 -1.53106,-1.07498 -3.80629,-3.62551 -5.4224,-6.07852 -1.21883,-1.84998 -1.39411,-2.03669 -2.10757,-2.24494 -1.6671,-0.48662 -4.12284,-1.871 -6.03171,-3.40026 -1.06539,-0.85353 -1.93707,-1.6473 -1.93707,-1.76395 0,-0.11664 0.54633,-0.76263 1.21407,-1.43553 l 1.21408,-1.22345 0.99105,0.90576 c 1.17607,1.07486 2.57286,2.06307 2.71506,1.92087 0.0557,-0.0557 -0.0679,-0.82138 -0.27484,-1.70143 -0.6712,-2.85501 -0.80784,-3.72082 -0.61728,-3.91137 0.17521,-0.17522 3.10569,-0.51778 3.34344,-0.39084 0.0664,0.0354 0.17409,0.41216 0.23935,0.83716 0.49691,3.23587 0.73233,3.49472 1.08228,1.18997 l 0.20156,-1.32746 1.36255,0.0477 c 2.08094,0.0728 2.1822,0.1152 2.17904,0.91149 -0.004,1.14315 -0.5168,2.95414 -1.39034,4.91511 -0.77396,1.73744 -0.81616,1.90944 -0.59775,2.43671 0.63091,1.52317 4.28354,6.34327 4.80686,6.34327 0.11157,0 0.43558,-0.51199 0.72001,-1.13775 1.38067,-3.03749 3.69348,-5.76705 6.44681,-7.60847 0.92863,-0.62107 1.52786,-1.15239 1.59997,-1.41864 0.0829,-0.30591 -0.12268,-0.87701 -0.73045,-2.02972 -1.19039,-2.2577 -1.59546,-3.93261 -1.62947,-6.73765 -0.0411,-3.38707 0.66164,-5.51531 2.81542,-8.52686 1.16121,-1.62366 1.18441,-1.87376 0.1964,-2.11738 -0.83457,-0.20579 -3.45541,-1.71549 -3.85089,-2.21826 -1.32428,-1.68355 0.96818,-2.70127 5.80656,-2.57779 l 2.26677,0.0579 0.21663,-1.45633 c 0.11915,-0.80098 0.39431,-2.80798 0.61146,-4.46 0.529447,-4.02784 0.428517,-3.72345 1.383467,-4.17233 l 0.83232,-0.39124 6.04149,1.01871 c 3.32282,0.56028 6.57395,1.09804 7.22475,1.19501 1.89492,0.28236 2.4919,0.50056 2.99044,1.09304 0.69026,0.82033 0.73293,1.26871 0.29744,3.12601 -0.76437,3.25999 -0.90445,3.8791 -1.20396,5.32141 -0.16634,0.80098 -0.31415,1.56164 -0.32848,1.69036 -0.0159,0.14302 0.70329,0.47738 1.84929,0.85973 3.34549,1.11617 5.60976,2.60587 5.46209,3.59358 -0.12284,0.82169 -2.02181,1.58406 -3.96968,1.59369 -1.48242,0.007 -1.51152,0.0564 -1.0054,1.69685 0.68622,2.22411 0.92652,4.52616 0.65085,6.23503 -0.2833,1.75614 -0.94254,3.78236 -1.75764,5.40219 -0.47421,0.9424 -0.61842,1.45731 -0.61842,2.20807 0,0.95031 0.0254,0.99925 0.86469,1.6656 2.70797,2.14998 4.63489,4.76386 6.1355,8.32284 0.28495,0.67583 0.58056,1.22878 0.65691,1.22878 0.0764,0 0.63977,-0.41859 1.25204,-0.93019 1.31444,-1.09833 2.83153,-3.12356 2.66497,-3.5576 -0.2301,-0.59964 -0.4695,-5.67671 -0.35316,-7.48972 l 0.12027,-1.87424 1.29245,0.12731 c 2.34414,0.2309 2.21103,0.0958 2.14891,2.18125 -0.0476,1.59603 -0.0241,1.76203 0.20355,1.43993 0.23003,-0.3255 1.18946,-3.20846 1.49941,-4.50551 0.13961,-0.58422 0.3845,-0.61593 1.64059,-0.21242 2.20222,0.70743 2.1152,0.5434 1.44054,2.71548 -0.69045,2.22292 -0.6429,2.30001 0.7227,1.17155 l 0.89536,-0.73988 0.47026,0.51233 c 0.25865,0.28178 0.77961,0.89403 1.1577,1.36055 l 0.68743,0.84823 -1.51027,1.17839 c -1.92648,1.50313 -3.174,2.23451 -4.62254,2.71004 -0.79316,0.26037 -1.25088,0.52857 -1.46077,0.85593 -1.65407,2.57973 -4.70897,5.94022 -7.12308,7.83564 -0.86213,0.6769 -0.95571,0.82009 -0.95571,1.4624 0,1.69892 -1.13189,5.34041 -2.37118,7.62852 l -0.53199,0.98222 1.14126,1.29622 c 4.17443,4.74119 5.76895,7.68748 6.69005,12.36164 1.08445,5.50302 -0.67787,12.4894 -4.28892,17.00266 -4.17461,5.21762 -11.099,8.92541 -18.64743,9.98509 -1.76372,0.2476 -4.22837,0.31457 -5.293,0.14382 z"
       id="path1" /></g></svg>
