0
SECTION
2
HEADER
9
$INSUNITS
70
4
9
$ACADVER
1
AC1014
9
$HANDSEED
5
FFFF
0
ENDSEC
0
SECTION
2
TABLES
0
TABLE
2
VPORT
5
8
100
AcDbSymbolTable
0
ENDTAB
0
TABLE
2
LTYPE
5
5
100
AcDbSymbolTable
0
LTYPE
5
14
100
AcDbSymbolTableRecord
100
AcDbLinetypeTableRecord
2
BYBLOCK
70
0
0
LTYPE
5
15
100
AcDbSymbolTableRecord
100
AcDbLinetypeTableRecord
2
BYLAYER
70
0
0
ENDTAB
0
TABLE
2
LAYER
5
2
100
AcDbSymbolTable
70
2
0
LAYER
5
50
100
AcDbSymbolTableRecord
100
AcDbLayerTableRecord
2
0
70
0
6
CONTINUOUS
0
ENDTAB
0
TABLE
2
STYLE
5
3
100
AcDbSymbolTable
70
1
0
STYLE
5
11
100
AcDbSymbolTableRecord
100
AcDbTextStyleTableRecord
2
STANDARD
70
0
0
ENDTAB
0
TABLE
2
VIEW
5
6
100
AcDbSymbolTable
70
0
0
ENDTAB
0
TABLE
2
UCS
5
7
100
AcDbSymbolTable
70
0
0
ENDTAB
0
TABLE
2
APPID
5
9
100
AcDbSymbolTable
70
2
0
APPID
5
12
100
AcDbSymbolTableRecord
100
AcDbRegAppTableRecord
2
ACAD
70
0
0
ENDTAB
0
TABLE
2
DIMSTYLE
5
A
100
AcDbSymbolTable
70
1
0
ENDTAB
0
TABLE
2
BLOCK_RECORD
5
1
100
AcDbSymbolTable
70
1
0
BLOCK_RECORD
5
1F
100
AcDbSymbolTableRecord
100
AcDbBlockTableRecord
2
*MODEL_SPACE
0
BLOCK_RECORD
5
1B
100
AcDbSymbolTableRecord
100
AcDbBlockTableRecord
2
*PAPER_SPACE
0
ENDTAB
0
ENDSEC
0
SECTION
2
BLOCKS
0
BLOCK
5
20
100
AcDbEntity
100
AcDbBlockBegin
2
*MODEL_SPACE
0
ENDBLK
5
21
100
AcDbEntity
100
AcDbBlockEnd
0
BLOCK
5
1C
100
AcDbEntity
100
AcDbBlockBegin
2
*PAPER_SPACE
0
ENDBLK
5
1D
100
AcDbEntity
100
AcDbBlockEnd
0
ENDSEC
0
SECTION
2
ENTITIES
0
LWPOLYLINE
5
100
100
AcDbEntity
8
0
100
AcDbPolyline
90
28
70
1
43
0.0
10
0.050000000001253486
20
-33.775000000099524
10
10.930132508082062
20
-33.772413580901727
42
0.40261972638206894
10
14.075000436012122
20
-30.5000000007606
10
14.075000436012122
20
0.50001323961533561
42
0.41421234839850285
10
10.800000770420009
20
3.7749999999273594
10
-2.5999995484938099
20
3.7749999999137378
42
0.41421356237287632
10
-2.9999995484935083
20
3.374999999913737
10
-2.9999995484935047
20
1.7749999999008639
42
-0.99999999999999989
10
-6.3999995484935068
20
1.7749999999008546
10
-6.3999995484935095
20
3.3749999999105795
42
0.41421356237331164
10
-6.7999995484938083
20
3.7749999999105794
10
-20.199999563988001
20
3.7749999999005013
42
0.41421356243406621
10
-23.474999563988
20
0.49999999921875676
10
-23.474999563987943
20
-30.500000000099551
42
0.35018203499196998
10
-20.925718644780751
20
-33.693580563632167
42
-0.35018203499196832
10
-20.536515451008665
20
-34.181150115316534
10
-20.536515451008665
20
-35.950000000099358
42
0.41421356237309509
10
-20.336515451008665
20
-36.150000000099361
10
-8.2365154510085876
20
-36.150000000099361
42
0.41421356237308693
10
-8.0365154510085848
20
-35.950000000099358
10
-8.0365154510085866
20
-34.275000000099539
42
-0.41421356237309509
10
-7.5365154510085874
20
-33.775000000099539
10
-6.799999548493485
20
-33.775000000099539
42
0.41421356237309337
10
-6.3999995484934828
20
-33.37500000009954
10
-6.3999995484934846
20
-31.775000000099549
42
-0.99999999999999989
10
-2.9999995484934852
20
-31.775000000099549
10
-2.9999995484934852
20
-33.375000000099526
42
0.4142135623730967
10
-2.5999995484934835
20
-33.775000000099531
0
CIRCLE
5
101
100
AcDbEntity
8
0
100
AcDbCircle
10
-0.099999999997927302
20
-33.099999999999959
30
0
40
0.42999999999999655
210
0
220
-0
230
1
0
CIRCLE
5
102
100
AcDbEntity
8
0
100
AcDbCircle
10
11.100000000001975
20
-33.099999999999959
30
0
40
0.42999999999999655
210
0
220
0
230
1
0
ENDSEC
0
SECTION
2
OBJECTS
0
DICTIONARY
5
C
100
AcDbDictionary
3
ACAD_GROUP
350
D
3
ACAD_MLINESTYLE
350
17
0
DICTIONARY
5
D
100
AcDbDictionary
0
DICTIONARY
5
1A
330
C
100
AcDbDictionary
0
DICTIONARY
5
17
100
AcDbDictionary
0
ENDSEC
0
EOF
