0
SECTION
2
HEADER
9
$INSUNITS
70
4
9
$ACADVER
1
AC1014
9
$HANDSEED
5
FFFF
0
ENDSEC
0
SECTION
2
TABLES
0
TABLE
2
VPORT
5
8
100
AcDbSymbolTable
0
ENDTAB
0
TABLE
2
LTYPE
5
5
100
AcDbSymbolTable
0
LTYPE
5
14
100
AcDbSymbolTableRecord
100
AcDbLinetypeTableRecord
2
BYBLOCK
70
0
0
LTYPE
5
15
100
AcDbSymbolTableRecord
100
AcDbLinetypeTableRecord
2
BYLAYER
70
0
0
ENDTAB
0
TABLE
2
LAYER
5
2
100
AcDbSymbolTable
70
2
0
LAYER
5
50
100
AcDbSymbolTableRecord
100
AcDbLayerTableRecord
2
0
70
0
6
CONTINUOUS
0
ENDTAB
0
TABLE
2
STYLE
5
3
100
AcDbSymbolTable
70
1
0
STYLE
5
11
100
AcDbSymbolTableRecord
100
AcDbTextStyleTableRecord
2
STANDARD
70
0
0
ENDTAB
0
TABLE
2
VIEW
5
6
100
AcDbSymbolTable
70
0
0
ENDTAB
0
TABLE
2
UCS
5
7
100
AcDbSymbolTable
70
0
0
ENDTAB
0
TABLE
2
APPID
5
9
100
AcDbSymbolTable
70
2
0
APPID
5
12
100
AcDbSymbolTableRecord
100
AcDbRegAppTableRecord
2
ACAD
70
0
0
ENDTAB
0
TABLE
2
DIMSTYLE
5
A
100
AcDbSymbolTable
70
1
0
ENDTAB
0
TABLE
2
BLOCK_RECORD
5
1
100
AcDbSymbolTable
70
1
0
BLOCK_RECORD
5
1F
100
AcDbSymbolTableRecord
100
AcDbBlockTableRecord
2
*MODEL_SPACE
0
BLOCK_RECORD
5
1B
100
AcDbSymbolTableRecord
100
AcDbBlockTableRecord
2
*PAPER_SPACE
0
ENDTAB
0
ENDSEC
0
SECTION
2
BLOCKS
0
BLOCK
5
20
100
AcDbEntity
100
AcDbBlockBegin
2
*MODEL_SPACE
0
ENDBLK
5
21
100
AcDbEntity
100
AcDbBlockEnd
0
BLOCK
5
1C
100
AcDbEntity
100
AcDbBlockBegin
2
*PAPER_SPACE
0
ENDBLK
5
1D
100
AcDbEntity
100
AcDbBlockEnd
0
ENDSEC
0
SECTION
2
ENTITIES
0
LWPOLYLINE
5
100
100
AcDbEntity
8
0
100
AcDbPolyline
90
39
70
1
43
0.0
10
14.074653791925932
20
-30.547648699999069
42
0.0036374497143968855
10
14.075000436012076
20
-30.500000000099941
10
14.075000436007075
20
-22.811500000098242
42
0.41421356237309048
10
13.075000436006434
20
-21.811500000098892
10
12.075000436012937
20
-21.811500000099521
42
-0.99999999999999989
10
12.075000436011241
20
-19.188500000099534
10
13.075000436004711
20
-19.188500000098891
42
0.41421356237309692
10
14.075000436004071
20
-18.188500000098237
10
14.075000435991921
20
0.50001148601070522
42
0.41421253513567213
10
10.800000436012064
20
3.7749999999005412
10
-2.4999995484935256
20
3.7749999999005315
42
0.4142135623730952
10
-3.499999548493526
20
2.7749999999005315
10
-3.4999995484935242
20
1.7749999999008614
42
-0.99999999999999989
10
-5.89999954849349
20
1.7749999999008581
10
-5.8999995484934908
20
2.7749999999005293
42
0.41421356237309453
10
-6.89999954849349
20
3.7749999999005297
10
-20.199999563988001
20
3.7749999999005226
42
0.4142135623730947
10
-23.474999563988
20
0.49999999990052391
10
-23.474999563988028
20
-18.188500000099317
42
0.41421356237309309
10
-22.474999563988021
20
-19.188500000099321
10
-21.474999563988
20
-19.188500000099321
42
-0.99999999999999989
10
-21.474999563988018
20
-21.811500000099336
10
-22.474999563988032
20
-21.811500000099329
42
0.41421356237309243
10
-23.474999563988032
20
-22.811500000099336
10
-23.474999563988046
20
-30.500000000099536
42
0.13108813234965289
10
-23.039859652798114
20
-32.13120191156964
42
-0.13108813234965058
10
-22.999999508261638
20
-32.280624987429491
10
-22.999999508261638
20
-34.399999224394563
42
0.41421356237310364
10
-22.699999508261641
20
-34.699999224394567
10
-22.299999508261628
20
-34.69999922439456
42
-0.41421356237309509
10
-21.999999508261631
20
-34.999999224394557
10
-21.999999508261638
20
-35.949999210983535
42
0.41421356237310153
10
-21.799999508261635
20
-36.14999921098353
10
12.218095533453956
20
-36.149999210983538
42
0.41421356237309825
10
12.418095533453954
20
-35.949999210983549
10
12.418095533453958
20
-34.200000000000003
42
-0.41421356237309509
10
12.668095533453956
20
-33.950000000000003
10
13.874653791925777
20
-33.950000000000003
42
0.41421356237309509
10
14.074653791925778
20
-33.750000000000007
0
LWPOLYLINE
5
101
100
AcDbEntity
8
0
100
AcDbPolyline
90
4
70
1
43
0.0
10
-21.224999563987947
20
-18.500000230967832
10
-21.724999563987954
20
-18.500000230967832
42
-0.99999999999999989
10
-21.724999563987947
20
-16.500000230967835
10
-21.224999563987939
20
-16.500000230967835
42
-0.99999999999999989
0
CIRCLE
5
102
100
AcDbEntity
8
0
100
AcDbCircle
10
12.075000436012122
20
-17.500000230968002
30
0
40
1.0000000000000009
210
0
220
0
230
1
0
ENDSEC
0
SECTION
2
OBJECTS
0
DICTIONARY
5
C
100
AcDbDictionary
3
ACAD_GROUP
350
D
3
ACAD_MLINESTYLE
350
17
0
DICTIONARY
5
D
100
AcDbDictionary
0
DICTIONARY
5
1A
330
C
100
AcDbDictionary
0
DICTIONARY
5
17
100
AcDbDictionary
0
ENDSEC
0
EOF
