0
SECTION
2
HEADER
9
$INSUNITS
70
4
9
$ACADVER
1
AC1014
9
$HANDSEED
5
FFFF
0
ENDSEC
0
SECTION
2
TABLES
0
TABLE
2
VPORT
5
8
100
AcDbSymbolTable
0
ENDTAB
0
TABLE
2
LTYPE
5
5
100
AcDbSymbolTable
0
LTYPE
5
14
100
AcDbSymbolTableRecord
100
AcDbLinetypeTableRecord
2
BYBLOCK
70
0
0
LTYPE
5
15
100
AcDbSymbolTableRecord
100
AcDbLinetypeTableRecord
2
BYLAYER
70
0
0
ENDTAB
0
TABLE
2
LAYER
5
2
100
AcDbSymbolTable
70
2
0
LAYER
5
50
100
AcDbSymbolTableRecord
100
AcDbLayerTableRecord
2
0
70
0
6
CONTINUOUS
0
ENDTAB
0
TABLE
2
STYLE
5
3
100
AcDbSymbolTable
70
1
0
STYLE
5
11
100
AcDbSymbolTableRecord
100
AcDbTextStyleTableRecord
2
STANDARD
70
0
0
ENDTAB
0
TABLE
2
VIEW
5
6
100
AcDbSymbolTable
70
0
0
ENDTAB
0
TABLE
2
UCS
5
7
100
AcDbSymbolTable
70
0
0
ENDTAB
0
TABLE
2
APPID
5
9
100
AcDbSymbolTable
70
2
0
APPID
5
12
100
AcDbSymbolTableRecord
100
AcDbRegAppTableRecord
2
ACAD
70
0
0
ENDTAB
0
TABLE
2
DIMSTYLE
5
A
100
AcDbSymbolTable
70
1
0
ENDTAB
0
TABLE
2
BLOCK_RECORD
5
1
100
AcDbSymbolTable
70
1
0
BLOCK_RECORD
5
1F
100
AcDbSymbolTableRecord
100
AcDbBlockTableRecord
2
*MODEL_SPACE
0
BLOCK_RECORD
5
1B
100
AcDbSymbolTableRecord
100
AcDbBlockTableRecord
2
*PAPER_SPACE
0
ENDTAB
0
ENDSEC
0
SECTION
2
BLOCKS
0
BLOCK
5
20
100
AcDbEntity
100
AcDbBlockBegin
2
*MODEL_SPACE
0
ENDBLK
5
21
100
AcDbEntity
100
AcDbBlockEnd
0
BLOCK
5
1C
100
AcDbEntity
100
AcDbBlockBegin
2
*PAPER_SPACE
0
ENDBLK
5
1D
100
AcDbEntity
100
AcDbBlockEnd
0
ENDSEC
0
SECTION
2
ENTITIES
0
LWPOLYLINE
5
100
100
AcDbEntity
8
0
100
AcDbPolyline
90
5
70
1
43
0.0
10
-2.1999995484934827
20
-33.275000000099546
10
-2.1999995484934849
20
-31.775000000099546
42
0.99999999999999989
10
-7.1999995484934853
20
-31.775000000099553
10
-7.1999995484934818
20
-34.275000000099553
10
-1.1999995484934822
20
-34.275000000099553
42
-0.41421356237309515
0
CIRCLE
5
101
100
AcDbEntity
8
0
100
AcDbCircle
10
-4.6999995484934844
20
-31.775000000099549
30
0
40
1.7645000000000004
210
-0
220
0
230
1
0
LWPOLYLINE
5
102
100
AcDbEntity
8
0
100
AcDbPolyline
90
6
70
1
43
0.0
10
-1.1999995484935055
20
4.2749999999005013
10
-8.1999995484935067
20
4.2749999999005013
42
-0.4142135623730952
10
-7.1999995484935067
20
3.2749999999005013
10
-7.1999995484935075
20
1.7749999999008592
42
0.99999999999999989
10
-2.1999995484935067
20
1.7749999999008581
10
-2.1999995484935053
20
3.2749999999005022
42
-0.41421356237309509
0
CIRCLE
5
103
100
AcDbEntity
8
0
100
AcDbCircle
10
-4.6999995484935067
20
1.7749999999008592
30
0
40
1.7645000000000004
210
0
220
-0
230
1
0
LWPOLYLINE
5
104
100
AcDbEntity
8
0
100
AcDbPolyline
90
4
70
1
43
0.0
10
14.575000436012125
20
-8.4641016152372153
10
14.575000436012125
20
-1.5358983849618872
42
-0.26794919243111026
10
13.575000436012203
20
-3.2679491925307191
42
0.57735026918959509
10
13.575000436012203
20
-6.7320508076683847
42
-0.26794919243111048
0
LWPOLYLINE
5
105
100
AcDbEntity
8
0
100
AcDbPolyline
90
4
70
1
43
0.0
10
13.575000436012211
20
-23.267949192530288
42
0.57735026918959276
10
13.575000436012211
20
-26.732050807667946
42
-0.2679491924311091
10
14.575000436012122
20
-28.464101615236771
10
14.575000436012125
20
-21.535898384961456
42
-0.26794919243110932
0
LWPOLYLINE
5
106
100
AcDbEntity
8
0
100
AcDbPolyline
90
4
70
1
43
0.0
10
-22.974999563988
20
-6.7320508076682479
42
0.57735026918962562
10
-22.974999563988
20
-3.2679491925304927
42
-0.26794919243112336
10
-23.974999563988003
20
-1.5358983849616106
10
-23.974999563988003
20
-8.4641016152371265
42
-0.26794919243112325
0
LWPOLYLINE
5
107
100
AcDbEntity
8
0
100
AcDbPolyline
90
4
70
1
43
0.0
10
-23.974999563988003
20
-21.53589838496158
10
-23.974999563988003
20
-28.464101615237112
42
-0.26794919243112381
10
-22.974999563987993
20
-26.732050807668234
42
0.57735026918962939
10
-22.974999563987993
20
-23.267949192530462
42
-0.26794919243112381
0
CIRCLE
5
108
100
AcDbEntity
8
0
100
AcDbCircle
10
-4.6999995639878271
20
-15.000000000099369
30
0
40
7.25
210
0
220
-0
230
1
0
CIRCLE
5
109
100
AcDbEntity
8
0
100
AcDbCircle
10
-4.6999995639878271
20
-15.000000000099369
30
0
40
3.0000000000000004
210
0
220
0
230
1
0
ENDSEC
0
SECTION
2
OBJECTS
0
DICTIONARY
5
C
100
AcDbDictionary
3
ACAD_GROUP
350
D
3
ACAD_MLINESTYLE
350
17
0
DICTIONARY
5
D
100
AcDbDictionary
0
DICTIONARY
5
1A
330
C
100
AcDbDictionary
0
DICTIONARY
5
17
100
AcDbDictionary
0
ENDSEC
0
EOF
