0
SECTION
2
HEADER
9
$INSUNITS
70
4
9
$ACADVER
1
AC1014
9
$HANDSEED
5
FFFF
0
ENDSEC
0
SECTION
2
TABLES
0
TABLE
2
VPORT
5
8
100
AcDbSymbolTable
0
ENDTAB
0
TABLE
2
LTYPE
5
5
100
AcDbSymbolTable
0
LTYPE
5
14
100
AcDbSymbolTableRecord
100
AcDbLinetypeTableRecord
2
BYBLOCK
70
0
0
LTYPE
5
15
100
AcDbSymbolTableRecord
100
AcDbLinetypeTableRecord
2
BYLAYER
70
0
0
ENDTAB
0
TABLE
2
LAYER
5
2
100
AcDbSymbolTable
70
2
0
LAYER
5
50
100
AcDbSymbolTableRecord
100
AcDbLayerTableRecord
2
0
70
0
6
CONTINUOUS
0
ENDTAB
0
TABLE
2
STYLE
5
3
100
AcDbSymbolTable
70
1
0
STYLE
5
11
100
AcDbSymbolTableRecord
100
AcDbTextStyleTableRecord
2
STANDARD
70
0
0
ENDTAB
0
TABLE
2
VIEW
5
6
100
AcDbSymbolTable
70
0
0
ENDTAB
0
TABLE
2
UCS
5
7
100
AcDbSymbolTable
70
0
0
ENDTAB
0
TABLE
2
APPID
5
9
100
AcDbSymbolTable
70
2
0
APPID
5
12
100
AcDbSymbolTableRecord
100
AcDbRegAppTableRecord
2
ACAD
70
0
0
ENDTAB
0
TABLE
2
DIMSTYLE
5
A
100
AcDbSymbolTable
70
1
0
ENDTAB
0
TABLE
2
BLOCK_RECORD
5
1
100
AcDbSymbolTable
70
1
0
BLOCK_RECORD
5
1F
100
AcDbSymbolTableRecord
100
AcDbBlockTableRecord
2
*MODEL_SPACE
0
BLOCK_RECORD
5
1B
100
AcDbSymbolTableRecord
100
AcDbBlockTableRecord
2
*PAPER_SPACE
0
ENDTAB
0
ENDSEC
0
SECTION
2
BLOCKS
0
BLOCK
5
20
100
AcDbEntity
100
AcDbBlockBegin
2
*MODEL_SPACE
0
ENDBLK
5
21
100
AcDbEntity
100
AcDbBlockEnd
0
BLOCK
5
1C
100
AcDbEntity
100
AcDbBlockBegin
2
*PAPER_SPACE
0
ENDBLK
5
1D
100
AcDbEntity
100
AcDbBlockEnd
0
ENDSEC
0
SECTION
2
ENTITIES
0
LWPOLYLINE
5
100
100
AcDbEntity
8
0
100
AcDbPolyline
90
6
70
1
43
0.0
10
-23.974999563988003
20
-16.500000000099341
10
-23.974999563988007
20
-24.500000000099345
42
-0.4142135623730977
10
-21.974999563987989
20
-22.500000000099341
10
-21.474999563988
20
-22.500000000099348
42
0.99999999999999989
10
-21.474999563987964
20
-18.500000000099345
10
-21.974999563988025
20
-18.500000000099341
42
-0.41421356237309243
0
CIRCLE
5
101
100
AcDbEntity
8
0
100
AcDbCircle
10
-21.474999563987982
20
-20.500000000099345
30
0
40
1.3115000000000006
210
-0
220
0
230
1
0
LWPOLYLINE
5
102
100
AcDbEntity
8
0
100
AcDbPolyline
90
38
70
1
43
0.0
10
1.050000000001114
20
-26.450000000000035
10
1.7500000000013838
20
-26.450000000000035
10
1.7500000000013827
20
-24.450000000000035
10
2.0500000000013312
20
-24.450000000000035
10
2.0500000000015839
20
-22.450000000000028
42
-0.41421356237309387
10
3.0000000000015952
20
-21.500000000000028
42
-0.41421356237309076
10
3.9500000000015953
20
-22.450000000000028
10
3.9500000000014284
20
-24.450000000000035
10
4.2500000000013829
20
-24.450000000000035
10
4.2500000000013838
20
-26.450000000000031
10
6.7500000000013838
20
-26.450000000000031
10
6.7500000000013829
20
-24.450000000000031
10
7.0500000000013312
20
-24.450000000000031
10
7.0500000000015923
20
-22.450000000000028
42
-0.41421356237309537
10
8.0000000000015952
20
-21.500000000000025
42
-0.4142135623730947
10
8.9500000000015962
20
-22.450000000000028
10
8.9500000000014275
20
-24.450000000000031
10
9.250000000001382
20
-24.450000000000031
10
9.2500000000013838
20
-26.450000000000031
10
9.9500000000011148
20
-26.450000000000031
10
10.45000000000117
20
-26.450000000000031
10
10.450000000001172
20
-31.350000000000023
10
11.900000000001281
20
-31.35000000000003
42
-0.41421356237309509
10
12.150000000001279
20
-31.60000000000003
10
12.150000000001286
20
-33.100000000000023
42
-0.4142135623730977
10
11.900000000001281
20
-33.35000000000003
10
10.450000000001172
20
-33.35000000000003
10
10.450000000001173
20
-35.450000000000024
10
9.9500000000011202
20
-35.450000000000031
10
1.0500000000011194
20
-35.450000000000031
10
0.55000000000117333
20
-35.450000000000031
10
0.550000000001172
20
-33.350000000000037
10
-0.89999999999872071
20
-33.350000000000037
42
-0.4142135623730942
10
-1.1499999999987207
20
-33.100000000000037
10
-1.1499999999987272
20
-31.600000000000037
42
-0.41421356237309698
10
-0.89999999999872182
20
-31.350000000000033
10
0.55000000000117077
20
-31.350000000000033
10
0.55000000000116778
20
-26.450000000000035
0
LINE
5
103
100
AcDbEntity
8
0
100
AcDbLine
10
-10.915511619059409
20
-35.472614016088045
30
0
11
-12.21551161905948
21
-35.472614016088045
31
0
0
LINE
5
104
100
AcDbEntity
8
0
100
AcDbLine
10
-4.5655116190594054
20
-35.472614016088052
30
0
11
-10.915511619059409
21
-35.472614016088045
31
0
0
LINE
5
105
100
AcDbEntity
8
0
100
AcDbLine
10
-4.5655116190594054
20
-35.472614016088052
30
0
11
-3.2655116190594797
21
-35.472614016088059
31
0
0
LINE
5
106
100
AcDbEntity
8
0
100
AcDbLine
10
-12.21551161905948
20
-35.472614016088045
30
0
11
-12.215511619059473
21
-28.872614016088043
31
0
0
LINE
5
107
100
AcDbEntity
8
0
100
AcDbLine
10
-12.215511619059479
20
-28.172614016088048
30
0
11
-12.215511619059473
21
-28.872614016088043
31
0
0
LINE
5
108
100
AcDbEntity
8
0
100
AcDbLine
10
-3.2655116190594717
20
-28.872614016088054
30
0
11
-3.2655116190594797
21
-35.472614016088059
31
0
0
LINE
5
109
100
AcDbEntity
8
0
100
AcDbLine
10
-3.2655116190594784
20
-28.172614016088055
30
0
11
-3.2655116190594717
21
-28.872614016088054
31
0
0
LINE
5
110
100
AcDbEntity
8
0
100
AcDbLine
10
-4.5655116190593974
20
-28.172614016088055
30
0
11
-4.0455116190595799
21
-28.172614016088055
31
0
0
LINE
5
111
100
AcDbEntity
8
0
100
AcDbLine
10
-4.0455116190595799
20
-28.172614016088055
30
0
11
-4.045511619059404
21
-28.87261401608805
31
0
0
LINE
5
112
100
AcDbEntity
8
0
100
AcDbLine
10
-4.045511619059404
20
-28.87261401608805
30
0
11
-3.5655116190596363
21
-28.872614016088054
31
0
0
ARC
5
113
100
AcDbEntity
8
0
100
AcDbCircle
10
-4.9855116190594
20
-28.372614016088047
30
0
40
0.19999999999999574
210
0
220
-0
230
1
100
AcDbArc
50
89.999999999999503
51
180
0
LINE
5
114
100
AcDbEntity
8
0
100
AcDbLine
10
-4.9855116190593982
20
-28.172614016088051
30
0
11
-4.5655116190593974
21
-28.172614016088055
31
0
0
LINE
5
115
100
AcDbEntity
8
0
100
AcDbLine
10
-10.915511619059398
20
-28.172614016088041
30
0
11
-10.495511619059396
21
-28.172614016088041
31
0
0
ARC
5
116
100
AcDbEntity
8
0
100
AcDbCircle
10
-10.4955116190594
20
-28.372614016088047
30
0
40
0.20000000000000018
210
0
220
0
230
1
100
AcDbArc
50
0
51
89.999999999998991
0
LINE
5
117
100
AcDbEntity
8
0
100
AcDbLine
10
-10.295511619059399
20
-28.372614016088047
30
0
11
-10.295511619059399
21
-28.972614016088048
31
0
0
ARC
5
118
100
AcDbEntity
8
0
100
AcDbCircle
10
-10.095511619059398
20
-28.972614016088045
30
0
40
0.20000000000000018
210
0
220
0
230
1
100
AcDbArc
50
180
51
270
0
LINE
5
119
100
AcDbEntity
8
0
100
AcDbLine
10
-10.095511619059398
20
-29.172614016088044
30
0
11
-9.0455116190593987
21
-29.172614016088048
31
0
0
ARC
5
120
100
AcDbEntity
8
0
100
AcDbCircle
10
-9.0455116190594005
20
-28.972614016088048
30
0
40
0.20000000000000018
210
0
220
0
230
1
100
AcDbArc
50
-89.999999999999503
51
90.000000000001009
0
LINE
5
121
100
AcDbEntity
8
0
100
AcDbLine
10
-9.0455116190593969
20
-28.172614016088048
30
0
11
-6.4355116190593957
21
-28.172614016088048
31
0
0
ARC
5
122
100
AcDbEntity
8
0
100
AcDbCircle
10
-6.4355116190594011
20
-28.972614016088052
30
0
40
0.20000000000000018
210
0
220
-0
230
1
100
AcDbArc
50
89.999999999999247
51
269.99999999999949
0
LINE
5
123
100
AcDbEntity
8
0
100
AcDbLine
10
-5.3855116190593986
20
-29.172614016088051
30
0
11
-6.4355116190594028
21
-29.172614016088051
31
0
0
ARC
5
124
100
AcDbEntity
8
0
100
AcDbCircle
10
-5.3855116190594012
20
-28.972614016088048
30
0
40
0.20000000000000462
210
0
220
0
230
1
100
AcDbArc
50
270.00000000000074
51
360
0
LINE
5
125
100
AcDbEntity
8
0
100
AcDbLine
10
-5.1855116190593957
20
-28.37261401608805
30
0
11
-5.1855116190593966
21
-28.972614016088052
31
0
0
LINE
5
126
100
AcDbEntity
8
0
100
AcDbLine
10
-11.435511618955372
20
-28.872614016088043
30
0
11
-11.915511619059435
21
-28.872614016088043
31
0
0
LINE
5
127
100
AcDbEntity
8
0
100
AcDbLine
10
-11.435511618955402
20
-28.172614016088041
30
0
11
-11.435511618955372
21
-28.872614016088043
31
0
0
LINE
5
128
100
AcDbEntity
8
0
100
AcDbLine
10
-10.915511619059398
20
-28.172614016088041
30
0
11
-11.435511618955402
21
-28.172614016088041
31
0
0
LINE
5
129
100
AcDbEntity
8
0
100
AcDbLine
10
-11.915511619059435
20
-28.872614016088043
30
0
11
-11.91551161905948
21
-28.172614016088048
31
0
0
LINE
5
130
100
AcDbEntity
8
0
100
AcDbLine
10
-12.215511619059479
20
-28.172614016088048
30
0
11
-11.91551161905948
21
-28.172614016088048
31
0
0
LINE
5
131
100
AcDbEntity
8
0
100
AcDbLine
10
-3.5655116190596363
20
-28.872614016088054
30
0
11
-3.5655116190594787
21
-28.172614016088055
31
0
0
LINE
5
132
100
AcDbEntity
8
0
100
AcDbLine
10
-3.2655116190594784
20
-28.172614016088055
30
0
11
-3.5655116190594787
21
-28.172614016088055
31
0
0
LINE
5
133
100
AcDbEntity
8
0
100
AcDbLine
10
-9.045511619059404
20
-28.772614016088049
30
0
11
-9.445511619059209
21
-28.772614016088049
31
0
0
LINE
5
134
100
AcDbEntity
8
0
100
AcDbLine
10
-9.0455116190593969
20
-28.172614016088048
30
0
11
-9.445511619059209
21
-28.172614016088051
31
0
0
LINE
5
135
100
AcDbEntity
8
0
100
AcDbLine
10
-5.7757039979242624
20
-28.172614016088051
30
0
11
-6.0355116190593039
21
-28.172614016088051
31
0
0
LINE
5
136
100
AcDbEntity
8
0
100
AcDbLine
10
-6.4355116190593957
20
-28.172614016088048
30
0
11
-6.0355116190593039
21
-28.172614016088051
31
0
0
LINE
5
137
100
AcDbEntity
8
0
100
AcDbLine
10
-9.7053192401945605
20
-28.172614016088048
30
0
11
-9.445511619059209
21
-28.172614016088051
31
0
0
LINE
5
138
100
AcDbEntity
8
0
100
AcDbLine
10
-6.4355116190593984
20
-28.772614016088053
30
0
11
-6.0355116190596005
21
-28.772614016088053
31
0
0
LINE
5
139
100
AcDbEntity
8
0
100
AcDbLine
10
-9.445511619059209
20
-28.772614016088049
30
0
11
-9.7053192401944628
21
-28.772614016088049
31
0
0
ELLIPSE
5
140
100
AcDbEntity
8
0
100
AcDbEllipse
10
-9.7053192401944148
20
-28.672614016088044
30
0
11
-1.1518563880484955e-16
21
-0.10000000000000002
31
0.0
40
0.86602540378435733
41
4.7123889803846897
42
6.283185307179032
0
LINE
5
141
100
AcDbEntity
8
0
100
AcDbLine
10
-9.7919217805728493
20
-28.672614016088044
30
0
11
-9.7919217805734142
21
-28.272614016088049
31
0
0
ELLIPSE
5
142
100
AcDbEntity
8
0
100
AcDbEllipse
10
-9.7053192401944148
20
-28.272614016088045
30
0
11
1.1518563880484955e-16
21
0.10000000000000002
31
0.0
40
0.86602540378435733
41
1.6910917111091346e-12
42
1.5707963267949534
0
ELLIPSE
5
143
100
AcDbEntity
8
0
100
AcDbEllipse
10
-5.7757039979244116
20
-28.272614016088049
30
0
11
1.1518563880484952e-16
21
0.10000000000000001
31
0.0
40
0.8660254037843006
41
4.7123889803846897
42
6.2831853071778667
0
LINE
5
144
100
AcDbEntity
8
0
100
AcDbLine
10
-6.0355116190596005
20
-28.772614016088053
30
0
11
-5.7757039979243618
21
-28.772614016088049
31
0
0
LINE
5
145
100
AcDbEntity
8
0
100
AcDbLine
10
-5.6891014575454157
20
-28.672614016088048
30
0
11
-5.6891014575459824
21
-28.272614016088049
31
0
0
ELLIPSE
5
146
100
AcDbEntity
8
0
100
AcDbEllipse
10
-5.7757039979244134
20
-28.672614016088048
30
0
11
1.1518563880484952e-16
21
0.10000000000000001
31
0.0
40
0.8660254037843006
41
3.14159265359039
42
4.7123889803846897
0
LWPOLYLINE
5
147
100
AcDbEntity
8
0
100
AcDbPolyline
90
42
70
1
43
0.0
10
-20.036515451011034
20
-36.100992158857423
10
-20.536515451011038
20
-36.100992158857423
10
-20.536515451010978
20
-36.000992158857436
10
-20.536515451010608
20
-35.600992158857437
10
-20.53651545101037
20
-34.600992158857423
10
-20.536515451010423
20
-31.850992158857437
10
-19.336515451010406
20
-31.850992158857423
10
-19.136515451010403
20
-32.050992158857419
10
-19.1365154510104
20
-32.40099215885742
10
-18.936515451010393
20
-32.400992158857413
10
-18.936515451010404
20
-32.050992158857412
10
-18.736515451010401
20
-31.850992158857416
10
-18.336515451010403
20
-31.850992158857409
10
-18.136515451010403
20
-32.050992158857397
10
-18.136515451010396
20
-32.400992158857399
10
-17.936515451010397
20
-32.400992158857392
10
-17.936515451010401
20
-32.050992158857397
10
-17.736515451010412
20
-31.850992158857409
10
-17.336515451010388
20
-31.850992158857405
10
-17.1365154510104
20
-32.050992158857376
10
-17.1365154510104
20
-32.400992158857377
10
-16.936515451010401
20
-32.400992158857377
10
-16.936515451010404
20
-32.050992158857376
10
-16.736515451010419
20
-31.850992158857391
10
-16.336515451010378
20
-31.850992158857391
10
-16.136515451010403
20
-32.050992158857362
10
-16.136515451010396
20
-32.400992158857363
10
-15.936515451010393
20
-32.400992158857356
10
-15.936515451010402
20
-32.050992158857355
10
-15.736515451010431
20
-31.850992158857384
10
-14.536515451010406
20
-31.85099215885737
10
-14.53651545101035
20
-34.600992158857352
10
-14.536515451010985
20
-35.600992158857359
10
-14.536515451010978
20
-36.000992158857358
10
-14.536515451011034
20
-36.100992158857366
10
-15.036515451010386
20
-36.100992158857352
10
-15.142968985916125
20
-36.100992158857352
10
-15.246515451010312
20
-36.100992158857352
10
-15.336515451010255
20
-36.10099215885738
10
-19.736515451010341
20
-36.100992158857437
10
-19.826515451010351
20
-36.100992158857444
10
-19.930061916104666
20
-36.100992158857444
0
CIRCLE
5
148
100
AcDbEntity
8
0
100
AcDbCircle
10
10.800000436012064
20
0.49999999990056043
30
0
40
1.575000000000002
210
0
220
0
230
1
0
CIRCLE
5
149
100
AcDbEntity
8
0
100
AcDbCircle
10
10.800000436012118
20
-30.500000000099501
30
0
40
1.575000000000002
210
0
220
0
230
1
0
CIRCLE
5
150
100
AcDbEntity
8
0
100
AcDbCircle
10
-20.199999563988001
20
0.4999999999005027
30
0
40
1.575000000000002
210
0
220
0
230
1
0
CIRCLE
5
151
100
AcDbEntity
8
0
100
AcDbCircle
10
-20.199999563987944
20
-30.500000000099554
30
0
40
1.575000000000002
210
0
220
0
230
1
0
LWPOLYLINE
5
152
100
AcDbEntity
8
0
100
AcDbPolyline
90
24
70
1
43
0.0
10
-25.849999563987879
20
-30.831850807885772
10
-25.849999563987819
20
0.83185080768684472
10
-25.849999563987819
20
1.1073593127814343
42
-0.19891236737965498
10
-24.971319907547485
20
3.2286796563410509
10
-22.928679220428304
20
5.2713203434602773
42
-0.19891236737966123
10
-20.807358876868637
20
6.1499999999006558
10
-20.531850371773913
20
6.1499999999006558
10
11.131851243798007
20
6.1499999999006763
10
11.407359748892809
20
6.1499999999006771
42
-0.19891236737965154
10
13.528680092452401
20
5.2713203434603715
10
15.571320779571709
20
3.2286796563411633
42
-0.19891236737966606
10
16.450000436012118
20
1.1073593127814549
10
16.450000436012118
20
0.83185080768660757
10
16.450000436011969
20
-30.831850807885807
10
16.450000436011962
20
-31.107359312980051
42
-0.19891236737964693
10
15.571320779571687
20
-33.228679656539597
10
13.528680092452516
20
-35.271320343658921
42
-0.19891236737966517
10
11.407359748892796
20
-36.150000000099354
10
11.131851243798433
20
-36.150000000099354
10
-20.531850371774325
20
-36.150000000099347
10
-20.807358876868513
20
-36.150000000099354
42
-0.19891236737965523
10
-22.928679220428137
20
-35.271320343659013
10
-24.971319907547507
20
-33.228679656539683
42
-0.19891236737965848
10
-25.849999563987886
20
-31.107359312980016
0
CIRCLE
5
153
100
AcDbEntity
8
0
100
AcDbCircle
10
-4.6999995639878271
20
-15.000000000099369
30
0
40
7.25
210
0
220
0
230
1
0
CIRCLE
5
154
100
AcDbEntity
8
0
100
AcDbCircle
10
-4.6999995639878271
20
-15.000000000099355
30
0
40
2.5
210
0
220
-0
230
1
0
LWPOLYLINE
5
155
100
AcDbEntity
8
0
100
AcDbPolyline
90
6
70
1
43
0.0
10
12.575000436012122
20
-18.500000000099504
10
12.075000436012122
20
-18.500000000099504
42
0.99999999999999989
10
12.075000436012122
20
-22.500000000099508
10
12.575000436012122
20
-22.500000000099512
42
-0.41421356237309509
10
14.575000436012122
20
-24.500000000099508
10
14.575000436012122
20
-16.500000000099504
42
-0.41421356237309509
0
CIRCLE
5
156
100
AcDbEntity
8
0
100
AcDbCircle
10
12.075000436012122
20
-20.500000000099504
30
0
40
1.3115000000000006
210
-0
220
0
230
1
0
LWPOLYLINE
5
157
100
AcDbEntity
8
0
100
AcDbPolyline
90
6
70
1
43
0.0
10
-6.6999995484935067
20
2.2749999999005008
10
-6.6999995484935067
20
1.774999999900859
42
0.99999999999999989
10
-2.6999995484935067
20
1.7749999999008601
10
-2.6999995484935058
20
2.2749999999005022
42
-0.41421356237309509
10
-0.69999954849350499
20
4.2749999999005013
10
-8.6999995484935067
20
4.2749999999005013
42
-0.41421356237309515
0
CIRCLE
5
158
100
AcDbEntity
8
0
100
AcDbCircle
10
-4.6999995484935067
20
1.7749999999008597
30
0
40
1.1999999999999824
210
0
220
0
230
1
0
CIRCLE
5
159
100
AcDbEntity
8
0
100
AcDbCircle
10
-21.474999563987982
20
-20.500000000099345
30
0
40
2.5
210
0
220
0
230
1
0
CIRCLE
5
160
100
AcDbEntity
8
0
100
AcDbCircle
10
-4.6999995484935067
20
1.7749999999008597
30
0
40
2.5
210
0
220
0
230
1
0
CIRCLE
5
161
100
AcDbEntity
8
0
100
AcDbCircle
10
12.075000436012122
20
-20.500000000099504
30
0
40
2.4999999999999991
210
0
220
0
230
1
0
ENDSEC
0
SECTION
2
OBJECTS
0
DICTIONARY
5
C
100
AcDbDictionary
3
ACAD_GROUP
350
D
3
ACAD_MLINESTYLE
350
17
0
DICTIONARY
5
D
100
AcDbDictionary
0
DICTIONARY
5
1A
330
C
100
AcDbDictionary
0
DICTIONARY
5
17
100
AcDbDictionary
0
ENDSEC
0
EOF
