0
SECTION
2
HEADER
9
$INSUNITS
70
4
9
$ACADVER
1
AC1014
9
$HANDSEED
5
FFFF
0
ENDSEC
0
SECTION
2
TABLES
0
TABLE
2
VPORT
5
8
100
AcDbSymbolTable
0
ENDTAB
0
TABLE
2
LTYPE
5
5
100
AcDbSymbolTable
0
LTYPE
5
14
100
AcDbSymbolTableRecord
100
AcDbLinetypeTableRecord
2
BYBLOCK
70
0
0
LTYPE
5
15
100
AcDbSymbolTableRecord
100
AcDbLinetypeTableRecord
2
BYLAYER
70
0
0
ENDTAB
0
TABLE
2
LAYER
5
2
100
AcDbSymbolTable
70
2
0
LAYER
5
50
100
AcDbSymbolTableRecord
100
AcDbLayerTableRecord
2
0
70
0
6
CONTINUOUS
0
ENDTAB
0
TABLE
2
STYLE
5
3
100
AcDbSymbolTable
70
1
0
STYLE
5
11
100
AcDbSymbolTableRecord
100
AcDbTextStyleTableRecord
2
STANDARD
70
0
0
ENDTAB
0
TABLE
2
VIEW
5
6
100
AcDbSymbolTable
70
0
0
ENDTAB
0
TABLE
2
UCS
5
7
100
AcDbSymbolTable
70
0
0
ENDTAB
0
TABLE
2
APPID
5
9
100
AcDbSymbolTable
70
2
0
APPID
5
12
100
AcDbSymbolTableRecord
100
AcDbRegAppTableRecord
2
ACAD
70
0
0
ENDTAB
0
TABLE
2
DIMSTYLE
5
A
100
AcDbSymbolTable
70
1
0
ENDTAB
0
TABLE
2
BLOCK_RECORD
5
1
100
AcDbSymbolTable
70
1
0
BLOCK_RECORD
5
1F
100
AcDbSymbolTableRecord
100
AcDbBlockTableRecord
2
*MODEL_SPACE
0
BLOCK_RECORD
5
1B
100
AcDbSymbolTableRecord
100
AcDbBlockTableRecord
2
*PAPER_SPACE
0
ENDTAB
0
ENDSEC
0
SECTION
2
BLOCKS
0
BLOCK
5
20
100
AcDbEntity
100
AcDbBlockBegin
2
*MODEL_SPACE
0
ENDBLK
5
21
100
AcDbEntity
100
AcDbBlockEnd
0
BLOCK
5
1C
100
AcDbEntity
100
AcDbBlockBegin
2
*PAPER_SPACE
0
ENDBLK
5
1D
100
AcDbEntity
100
AcDbBlockEnd
0
ENDSEC
0
SECTION
2
ENTITIES
0
CIRCLE
5
100
100
AcDbEntity
8
0
100
AcDbCircle
10
10.800000436012001
20
-30.500000000099405
30
0
40
1.575
210
0
220
0
230
1
0
CIRCLE
5
101
100
AcDbEntity
8
0
100
AcDbCircle
10
-20.199999563988001
20
0.49999999990050004
30
0
40
1.575
210
0
220
0
230
1
0
CIRCLE
5
102
100
AcDbEntity
8
0
100
AcDbCircle
10
10.800000436012001
20
0.49999999990050004
30
0
40
1.575
210
0
220
0
230
1
0
CIRCLE
5
103
100
AcDbEntity
8
0
100
AcDbCircle
10
-20.199999563988001
20
-30.500000000099405
30
0
40
1.575
210
0
220
0
230
1
0
LWPOLYLINE
5
104
100
AcDbEntity
8
0
100
AcDbPolyline
90
16
70
1
43
0.0
10
11.821573311265801
20
6.1499999999005928
10
-21.2215724392418
20
6.1499999999005928
42
0.19891236737966539
10
-22.635786001614939
20
5.5642135622736477
10
-25.264213126361
20
2.9357864375273901
42
0.19891236737965082
10
-25.849999563987851
20
1.5215728751543685
10
-25.849999563988
20
-31.521572875353296
42
0.19891236737964921
10
-25.264213126361117
20
-32.935786437726414
10
-22.635786001614846
20
-35.564213562472553
42
0.19891236737965801
10
-21.2215724392418
20
-36.150000000099432
10
11.821573311265903
20
-36.150000000099411
42
0.19891236737964837
10
13.235786873638878
20
-35.564213562472581
10
15.8642139983851
20
-32.9357864377263
42
0.19891236737964824
10
16.450000436011937
20
-31.521572875353307
10
16.450000436012001
20
1.5215728751543711
42
0.19891236737965029
10
15.864213998385138
20
2.9357864375274239
10
13.235786873638901
20
5.5642135622736122
42
0.19891236737966539
0
CIRCLE
5
105
100
AcDbEntity
8
0
100
AcDbCircle
10
10.800000436012001
20
-30.500000000099405
30
0
40
1.575
210
0
220
0
230
1
0
CIRCLE
5
106
100
AcDbEntity
8
0
100
AcDbCircle
10
-20.199999563988001
20
0.49999999990050004
30
0
40
1.575
210
0
220
0
230
1
0
CIRCLE
5
107
100
AcDbEntity
8
0
100
AcDbCircle
10
10.800000436012001
20
0.49999999990050004
30
0
40
1.575
210
0
220
0
230
1
0
CIRCLE
5
108
100
AcDbEntity
8
0
100
AcDbCircle
10
-20.199999563988001
20
-30.500000000099405
30
0
40
1.575
210
0
220
0
230
1
0
LWPOLYLINE
5
109
100
AcDbEntity
8
0
100
AcDbPolyline
90
16
70
1
43
0.0
10
13.235786873638901
20
5.5642135622736122
42
0.19891236737966539
10
11.821573311265801
20
6.1499999999005439
10
-21.2215724392418
20
6.1499999999005928
42
0.19891236737966533
10
-22.635786001614839
20
5.56421356227355
10
-25.264213126361
20
2.9357864375273901
42
0.19891236737965082
10
-25.849999563988
20
1.5215728751543689
10
-25.849999563988
20
-31.5215728753533
42
0.1989123673796486
10
-25.264213126361049
20
-32.93578643772635
10
-22.635786001614846
20
-35.564213562472553
42
0.19891236737965798
10
-21.2215724392418
20
-36.150000000099411
10
11.821573311265903
20
-36.150000000099411
42
0.19891236737964857
10
13.235786873638848
20
-35.564213562472553
10
15.8642139983851
20
-32.9357864377263
42
0.19891236737964885
10
16.450000436012001
20
-31.5215728753533
10
16.450000436012001
20
1.5215728751543711
42
0.19891236737965076
10
15.864213998385111
20
2.9357864375274021
0
CIRCLE
5
110
100
AcDbEntity
8
0
100
AcDbCircle
10
10.800000436012001
20
0.49999999990050004
30
0
40
3.0000000000000004
210
0
220
0
230
1
0
CIRCLE
5
111
100
AcDbEntity
8
0
100
AcDbCircle
10
-20.199999563988001
20
0.49999999990050004
30
0
40
3.0000000000000004
210
0
220
0
230
1
0
CIRCLE
5
112
100
AcDbEntity
8
0
100
AcDbCircle
10
-20.199999563988001
20
-30.500000000099405
30
0
40
3.0000000000000022
210
0
220
0
230
1
0
CIRCLE
5
113
100
AcDbEntity
8
0
100
AcDbCircle
10
10.800000436012001
20
-30.500000000099405
30
0
40
3.0000000000000009
210
0
220
0
230
1
0
CIRCLE
5
114
100
AcDbEntity
8
0
100
AcDbCircle
10
-4.6999995639879746
20
-15.000000000099408
30
0
40
3.0000000000000004
210
0
220
0
230
1
0
ENDSEC
0
SECTION
2
OBJECTS
0
DICTIONARY
5
C
100
AcDbDictionary
3
ACAD_GROUP
350
D
3
ACAD_MLINESTYLE
350
17
0
DICTIONARY
5
D
100
AcDbDictionary
0
DICTIONARY
5
1A
330
C
100
AcDbDictionary
0
DICTIONARY
5
17
100
AcDbDictionary
0
ENDSEC
0
EOF
