<?xml version="1.0" standalone="no"?>
 <!DOCTYPE svg PUBLIC "-//W3C//DTD SVG 1.1//EN" 
 "http://www.w3.org/Graphics/SVG/1.1/DTD/svg11.dtd"> 
<svg
  xmlns:svg="http://www.w3.org/2000/svg"
  xmlns="http://www.w3.org/2000/svg"
  xmlns:xlink="http://www.w3.org/1999/xlink"
  version="1.1"
  width="297.0022mm" height="210.0072mm" viewBox="0.0000 0.0000 297.0022 210.0072">
<title>SVG Image created as servo-drive-Edge_Cuts.svg date 2024/09/23 11:45:45 </title>
  <desc>Image generated by PCBNEW </desc>
<g style="fill:#000000; fill-opacity:1.0000;stroke:#000000; stroke-opacity:1.0000;
stroke-linecap:round; stroke-linejoin:round;"
 transform="translate(0 0) scale(1 1)">
</g>
<g style="fill:none; 
stroke:#000000; stroke-width:0.2000; stroke-opacity:1; 
stroke-linecap:round; stroke-linejoin:round;">
<path d="M206.4279 120.4921 A0.3000 0.3000 0.0 0 0 206.1279 120.1921" />
<path d="M241.5029 107.3036
L240.5029 107.3036
" />
<path d="M206.4279 121.4421 A0.2000 0.2000 0.0 0 0 206.6279 121.6421" />
<path d="M207.2029 103.9921
L206.7029 103.9921
" />
<path d="M241.5029 104.6806 A1.0000 1.0000 0.0 0 0 242.5029 103.6806" />
<path d="M242.5025 116.0398
L242.5029 115.9921
" />
<path d="M242.5029 84.9921 A3.2750 3.2750 0.0 0 0 239.2279 81.7171" />
<path d="M239.2279 81.7171
L225.9279 81.7171
" />
<path d="M206.7029 101.9921
L207.2029 101.9921
" />
<path d="M242.3025 119.4421 A0.2000 0.2000 0.0 0 0 242.5025 119.2421" />
<path d="M204.9529 115.9921 A3.2750 3.2750 0.0 0 0 205.3880 117.6233" />
<path d="M240.8460 121.4421
L240.8460 119.6921
" />
<path d="M206.7029 101.9921 A1.0000 1.0000 0.0 0 0 206.7029 103.9921" />
<path d="M240.6460 121.6421 A0.2000 0.2000 0.0 0 0 240.8460 121.4421" />
<path d="M205.7279 120.1921
L206.1279 120.1921
" />
<path d="M242.5029 108.3036 A1.0000 1.0000 0.0 0 0 241.5029 107.3036" />
<path d="M204.9529 84.9921
L204.9529 103.6806
" />
<path d="M207.2029 103.9921 A1.0000 1.0000 0.0 1 0 207.2029 101.9921" />
<path d="M206.4279 120.4921
L206.4279 121.4421
" />
<circle cx="240.5029" cy="102.9921" r="1.0000" /> 
<path d="M242.5025 119.2421
L242.5025 116.0398
" />
<path d="M241.0960 119.4421
L242.3025 119.4421
" />
<path d="M241.0960 119.4421 A0.2500 0.2500 0.0 0 0 240.8460 119.6921" />
<path d="M205.9529 104.6806
L206.9529 104.6806
" />
<path d="M224.9279 82.7171
L224.9279 83.7171
" />
<path d="M221.5279 81.7171
L208.2279 81.7171
" />
<path d="M206.6279 121.6421
L240.6460 121.6421
" />
<path d="M222.5279 82.7171 A1.0000 1.0000 0.0 0 0 221.5279 81.7171" />
<path d="M206.9529 107.3036 A1.3115 1.3115 0.0 1 0 206.9529 104.6806" />
<path d="M222.5279 83.7171
L222.5279 82.7171
" />
<path d="M240.5029 104.6806
L241.5029 104.6806
" />
<path d="M204.9529 103.6806 A1.0000 1.0000 0.0 0 0 205.9529 104.6806" />
<path d="M205.9529 107.3036 A1.0000 1.0000 0.0 0 0 204.9529 108.3036" />
<path d="M242.5029 115.9921
L242.5029 108.3036
" />
<path d="M222.5279 83.7171 A1.2000 1.2000 0.0 0 0 224.9279 83.7171" />
<path d="M205.4279 117.7728
L205.4279 119.8921
" />
<path d="M206.9529 107.3036
L205.9529 107.3036
" />
<path d="M204.9529 108.3036
L204.9529 115.9921
" />
<path d="M205.4279 119.8921 A0.3000 0.3000 0.0 0 0 205.7279 120.1921" />
<path d="M225.9279 81.7171 A1.0000 1.0000 0.0 0 0 224.9279 82.7171" />
<path d="M242.5029 103.6806
L242.5029 84.9921
" />
<path d="M205.4279 117.7728 A0.3000 0.3000 0.0 0 0 205.3880 117.6233" />
<path d="M240.5029 104.6806 A1.3115 1.3115 0.0 0 0 240.5029 107.3036" />
<path d="M208.2279 81.7171 A3.2750 3.2750 0.0 0 0 204.9529 84.9921" />
</g> 
</svg>
