<?xml version="1.0" encoding="UTF-8" standalone="no"?>
<!-- Created with Inkscape (http://www.inkscape.org/) -->

<svg
   width="66.406723mm"
   height="94.642975mm"
   viewBox="0 0 66.406723 94.642975"
   version="1.1"
   id="svg1"
   xml:space="preserve"
   inkscape:export-filename="Documents/atopile-workspace/atopile-project-template/mech/tree.svg"
   inkscape:export-xdpi="96"
   inkscape:export-ydpi="96"
   inkscape:version="1.3 (0e150ed, 2023-07-21)"
   sodipodi:docname="tree.svg"
   xmlns:inkscape="http://www.inkscape.org/namespaces/inkscape"
   xmlns:sodipodi="http://sodipodi.sourceforge.net/DTD/sodipodi-0.dtd"
   xmlns="http://www.w3.org/2000/svg"
   xmlns:svg="http://www.w3.org/2000/svg"><sodipodi:namedview
     id="namedview1"
     pagecolor="#ffffff"
     bordercolor="#000000"
     borderopacity="0.25"
     inkscape:showpageshadow="2"
     inkscape:pageopacity="0.0"
     inkscape:pagecheckerboard="0"
     inkscape:deskcolor="#d1d1d1"
     inkscape:document-units="mm"
     inkscape:zoom="0.58683469"
     inkscape:cx="441.35087"
     inkscape:cy="621.98096"
     inkscape:window-width="1512"
     inkscape:window-height="945"
     inkscape:window-x="0"
     inkscape:window-y="37"
     inkscape:window-maximized="0"
     inkscape:current-layer="layer1" /><defs
     id="defs1" /><g
     inkscape:label="Layer 1"
     inkscape:groupmode="layer"
     id="layer1"
     transform="translate(-83.903673,-108.30031)"><path
       style="fill:#000000;stroke-width:0.820448"
       d="m 112.11568,199.61297 c 0.0572,-2.77473 0.0352,-3.33046 -0.13192,-3.33095 -0.40123,-8.3e-4 -4.29318,-0.29397 -5.84455,-0.43968 -5.9995,-0.56351 -12.949962,-1.65842 -15.192704,-2.39333 -3.606388,-1.18175 -5.88701,-3.48602 -6.736112,-6.80599 -0.840641,-3.28687 0.10213,-8.32445 2.150179,-11.48923 0.386318,-0.59695 2.502045,-3.32665 4.701615,-6.06598 l 3.999219,-4.98059 -0.795145,-0.52286 c -0.919437,-0.60457 -1.685281,-1.60359 -1.947624,-2.54059 -0.117701,-0.42039 -0.158261,-1.15861 -0.113394,-2.06384 0.08567,-1.7284 0.63196,-3.42883 1.601133,-4.98381 0.362724,-0.58197 2.68361,-3.58849 5.157523,-6.68116 2.47391,-3.09266 4.49802,-5.64383 4.49802,-5.66927 0,-0.0254 -0.48659,-0.28029 -1.08132,-0.56635 -0.91221,-0.43875 -1.14364,-0.62642 -1.47972,-1.19989 -0.33842,-0.57748 -0.3987,-0.84382 -0.40047,-1.76931 -0.003,-1.38887 0.35167,-2.49002 1.23101,-3.8257 0.37167,-0.56456 2.21196,-2.94334 4.08951,-5.2862 1.87756,-2.34286 3.38668,-4.30352 3.35361,-4.35704 -0.0331,-0.0535 -0.41578,-0.134 -0.85045,-0.17886 -1.02153,-0.10543 -1.78595,-0.47489 -2.13859,-1.0336 -0.23125,-0.36639 -0.27137,-0.64105 -0.22534,-1.54283 0.0755,-1.47993 0.28144,-1.79849 4.81579,-7.4503 4.15936,-5.18442 4.57657,-5.65788 5.2356,-5.94124 0.56288,-0.24203 1.77392,-0.26158 2.26768,-0.0366 0.44459,0.20257 1.46183,1.39373 5.73909,6.72033 4.10369,5.11046 4.63309,6.07891 4.18936,7.66377 -0.28396,1.0142 -1.25724,1.65321 -2.53156,1.66208 -0.23879,0.002 -0.50605,0.0508 -0.59392,0.10934 -0.10056,0.067 0.93724,1.47363 2.80099,3.79663 4.43932,5.53325 5.01542,6.32953 5.40598,7.47219 0.44227,1.294 0.4754,3.04966 0.0728,3.86015 -0.3303,0.66497 -0.99694,1.19742 -1.90675,1.52291 -0.37158,0.13294 -0.66581,0.30684 -0.65385,0.38643 0.012,0.0796 2.00862,2.63241 4.43703,5.67291 2.42842,3.0405 4.66632,5.90592 4.97314,6.36759 1.14156,1.71774 1.78868,3.7895 1.79907,5.75981 0.006,1.10047 -0.0504,1.42589 -0.3621,2.09841 -0.47317,1.02075 -1.00872,1.64816 -1.8053,2.11499 -0.34978,0.205 -0.63581,0.41536 -0.6356,0.4675 2.1e-4,0.0521 1.30996,1.72287 2.91054,3.71273 5.31553,6.60831 5.71405,7.15056 6.55911,8.92475 1.55239,3.25927 2.0224,6.79367 1.30533,9.81622 -0.70296,2.96307 -2.84419,5.288 -6.05222,6.57141 -3.06557,1.22642 -11.6858,2.53249 -20.24146,3.06684 l -1.55306,0.097 -0.0389,3.27276 -0.0388,3.27276 -5.00555,0.038 -5.00557,0.038 z"
       id="path1" /></g></svg>
